G04*
G04 #@! TF.GenerationSoftware,Altium Limited,Altium Designer,22.10.1 (41)*
G04*
G04 Layer_Color=8388736*
%FSLAX43Y43*%
%MOMM*%
G71*
G04*
G04 #@! TF.SameCoordinates,B95FFBA6-6113-45C9-A07F-A258FB423046*
G04*
G04*
G04 #@! TF.FilePolarity,Negative*
G04*
G01*
G75*
G04:AMPARAMS|DCode=17|XSize=0.38mm|YSize=1.3mm|CornerRadius=0.12mm|HoleSize=0mm|Usage=FLASHONLY|Rotation=0.000|XOffset=0mm|YOffset=0mm|HoleType=Round|Shape=RoundedRectangle|*
%AMROUNDEDRECTD17*
21,1,0.380,1.060,0,0,0.0*
21,1,0.140,1.300,0,0,0.0*
1,1,0.240,0.070,-0.530*
1,1,0.240,-0.070,-0.530*
1,1,0.240,-0.070,0.530*
1,1,0.240,0.070,0.530*
%
%ADD17ROUNDEDRECTD17*%
G04:AMPARAMS|DCode=18|XSize=0.38mm|YSize=1.3mm|CornerRadius=0.12mm|HoleSize=0mm|Usage=FLASHONLY|Rotation=270.000|XOffset=0mm|YOffset=0mm|HoleType=Round|Shape=RoundedRectangle|*
%AMROUNDEDRECTD18*
21,1,0.380,1.060,0,0,270.0*
21,1,0.140,1.300,0,0,270.0*
1,1,0.240,-0.530,-0.070*
1,1,0.240,-0.530,0.070*
1,1,0.240,0.530,0.070*
1,1,0.240,0.530,-0.070*
%
%ADD18ROUNDEDRECTD18*%
%ADD19R,0.330X0.530*%
%ADD20R,1.900X2.840*%
G04:AMPARAMS|DCode=21|XSize=0.84mm|YSize=0.42mm|CornerRadius=0.063mm|HoleSize=0mm|Usage=FLASHONLY|Rotation=180.000|XOffset=0mm|YOffset=0mm|HoleType=Round|Shape=RoundedRectangle|*
%AMROUNDEDRECTD21*
21,1,0.840,0.294,0,0,180.0*
21,1,0.714,0.420,0,0,180.0*
1,1,0.126,-0.357,0.147*
1,1,0.126,0.357,0.147*
1,1,0.126,0.357,-0.147*
1,1,0.126,-0.357,-0.147*
%
%ADD21ROUNDEDRECTD21*%
%ADD22R,0.550X0.390*%
%ADD23R,0.390X0.550*%
G04:AMPARAMS|DCode=24|XSize=1.152mm|YSize=1.252mm|CornerRadius=0.201mm|HoleSize=0mm|Usage=FLASHONLY|Rotation=90.000|XOffset=0mm|YOffset=0mm|HoleType=Round|Shape=RoundedRectangle|*
%AMROUNDEDRECTD24*
21,1,1.152,0.850,0,0,90.0*
21,1,0.750,1.252,0,0,90.0*
1,1,0.402,0.425,0.375*
1,1,0.402,0.425,-0.375*
1,1,0.402,-0.425,-0.375*
1,1,0.402,-0.425,0.375*
%
%ADD24ROUNDEDRECTD24*%
G04:AMPARAMS|DCode=25|XSize=0.782mm|YSize=1.392mm|CornerRadius=0.155mm|HoleSize=0mm|Usage=FLASHONLY|Rotation=180.000|XOffset=0mm|YOffset=0mm|HoleType=Round|Shape=RoundedRectangle|*
%AMROUNDEDRECTD25*
21,1,0.782,1.083,0,0,180.0*
21,1,0.472,1.392,0,0,180.0*
1,1,0.310,-0.236,0.541*
1,1,0.310,0.236,0.541*
1,1,0.310,0.236,-0.541*
1,1,0.310,-0.236,-0.541*
%
%ADD25ROUNDEDRECTD25*%
%ADD26C,1.152*%
G04:AMPARAMS|DCode=27|XSize=1.452mm|YSize=3.652mm|CornerRadius=0.239mm|HoleSize=0mm|Usage=FLASHONLY|Rotation=270.000|XOffset=0mm|YOffset=0mm|HoleType=Round|Shape=RoundedRectangle|*
%AMROUNDEDRECTD27*
21,1,1.452,3.175,0,0,270.0*
21,1,0.975,3.652,0,0,270.0*
1,1,0.477,-1.588,-0.488*
1,1,0.477,-1.588,0.488*
1,1,0.477,1.588,0.488*
1,1,0.477,1.588,-0.488*
%
%ADD27ROUNDEDRECTD27*%
G04:AMPARAMS|DCode=28|XSize=0.752mm|YSize=1.202mm|CornerRadius=0.151mm|HoleSize=0mm|Usage=FLASHONLY|Rotation=180.000|XOffset=0mm|YOffset=0mm|HoleType=Round|Shape=RoundedRectangle|*
%AMROUNDEDRECTD28*
21,1,0.752,0.900,0,0,180.0*
21,1,0.450,1.202,0,0,180.0*
1,1,0.302,-0.225,0.450*
1,1,0.302,0.225,0.450*
1,1,0.302,0.225,-0.450*
1,1,0.302,-0.225,-0.450*
%
%ADD28ROUNDEDRECTD28*%
G04:AMPARAMS|DCode=29|XSize=1.412mm|YSize=0.732mm|CornerRadius=0.149mm|HoleSize=0mm|Usage=FLASHONLY|Rotation=270.000|XOffset=0mm|YOffset=0mm|HoleType=Round|Shape=RoundedRectangle|*
%AMROUNDEDRECTD29*
21,1,1.412,0.435,0,0,270.0*
21,1,1.115,0.732,0,0,270.0*
1,1,0.297,-0.217,-0.558*
1,1,0.297,-0.217,0.558*
1,1,0.297,0.217,0.558*
1,1,0.297,0.217,-0.558*
%
%ADD29ROUNDEDRECTD29*%
G04:AMPARAMS|DCode=30|XSize=1.552mm|YSize=1.302mm|CornerRadius=0.22mm|HoleSize=0mm|Usage=FLASHONLY|Rotation=270.000|XOffset=0mm|YOffset=0mm|HoleType=Round|Shape=RoundedRectangle|*
%AMROUNDEDRECTD30*
21,1,1.552,0.863,0,0,270.0*
21,1,1.113,1.302,0,0,270.0*
1,1,0.440,-0.431,-0.556*
1,1,0.440,-0.431,0.556*
1,1,0.440,0.431,0.556*
1,1,0.440,0.431,-0.556*
%
%ADD30ROUNDEDRECTD30*%
G04:AMPARAMS|DCode=31|XSize=1.552mm|YSize=1.302mm|CornerRadius=0.22mm|HoleSize=0mm|Usage=FLASHONLY|Rotation=180.000|XOffset=0mm|YOffset=0mm|HoleType=Round|Shape=RoundedRectangle|*
%AMROUNDEDRECTD31*
21,1,1.552,0.863,0,0,180.0*
21,1,1.113,1.302,0,0,180.0*
1,1,0.440,-0.556,0.431*
1,1,0.440,0.556,0.431*
1,1,0.440,0.556,-0.431*
1,1,0.440,-0.556,-0.431*
%
%ADD31ROUNDEDRECTD31*%
G04:AMPARAMS|DCode=32|XSize=1.652mm|YSize=2.952mm|CornerRadius=0.264mm|HoleSize=0mm|Usage=FLASHONLY|Rotation=0.000|XOffset=0mm|YOffset=0mm|HoleType=Round|Shape=RoundedRectangle|*
%AMROUNDEDRECTD32*
21,1,1.652,2.425,0,0,0.0*
21,1,1.125,2.952,0,0,0.0*
1,1,0.527,0.563,-1.212*
1,1,0.527,-0.563,-1.212*
1,1,0.527,-0.563,1.212*
1,1,0.527,0.563,1.212*
%
%ADD32ROUNDEDRECTD32*%
G04:AMPARAMS|DCode=33|XSize=2.895mm|YSize=2.311mm|CornerRadius=0.346mm|HoleSize=0mm|Usage=FLASHONLY|Rotation=180.000|XOffset=0mm|YOffset=0mm|HoleType=Round|Shape=RoundedRectangle|*
%AMROUNDEDRECTD33*
21,1,2.895,1.619,0,0,180.0*
21,1,2.203,2.311,0,0,180.0*
1,1,0.692,-1.102,0.810*
1,1,0.692,1.102,0.810*
1,1,0.692,1.102,-0.810*
1,1,0.692,-1.102,-0.810*
%
%ADD33ROUNDEDRECTD33*%
G04:AMPARAMS|DCode=34|XSize=1.072mm|YSize=1.232mm|CornerRadius=0.191mm|HoleSize=0mm|Usage=FLASHONLY|Rotation=270.000|XOffset=0mm|YOffset=0mm|HoleType=Round|Shape=RoundedRectangle|*
%AMROUNDEDRECTD34*
21,1,1.072,0.850,0,0,270.0*
21,1,0.690,1.232,0,0,270.0*
1,1,0.382,-0.425,-0.345*
1,1,0.382,-0.425,0.345*
1,1,0.382,0.425,0.345*
1,1,0.382,0.425,-0.345*
%
%ADD34ROUNDEDRECTD34*%
G04:AMPARAMS|DCode=35|XSize=1.072mm|YSize=1.232mm|CornerRadius=0.191mm|HoleSize=0mm|Usage=FLASHONLY|Rotation=180.000|XOffset=0mm|YOffset=0mm|HoleType=Round|Shape=RoundedRectangle|*
%AMROUNDEDRECTD35*
21,1,1.072,0.850,0,0,180.0*
21,1,0.690,1.232,0,0,180.0*
1,1,0.382,-0.345,0.425*
1,1,0.382,0.345,0.425*
1,1,0.382,0.345,-0.425*
1,1,0.382,-0.345,-0.425*
%
%ADD35ROUNDEDRECTD35*%
G04:AMPARAMS|DCode=36|XSize=0.752mm|YSize=1.152mm|CornerRadius=0.151mm|HoleSize=0mm|Usage=FLASHONLY|Rotation=0.000|XOffset=0mm|YOffset=0mm|HoleType=Round|Shape=RoundedRectangle|*
%AMROUNDEDRECTD36*
21,1,0.752,0.850,0,0,0.0*
21,1,0.450,1.152,0,0,0.0*
1,1,0.302,0.225,-0.425*
1,1,0.302,-0.225,-0.425*
1,1,0.302,-0.225,0.425*
1,1,0.302,0.225,0.425*
%
%ADD36ROUNDEDRECTD36*%
G04:AMPARAMS|DCode=37|XSize=1.092mm|YSize=1.182mm|CornerRadius=0.194mm|HoleSize=0mm|Usage=FLASHONLY|Rotation=90.000|XOffset=0mm|YOffset=0mm|HoleType=Round|Shape=RoundedRectangle|*
%AMROUNDEDRECTD37*
21,1,1.092,0.795,0,0,90.0*
21,1,0.705,1.182,0,0,90.0*
1,1,0.387,0.398,0.353*
1,1,0.387,0.398,-0.353*
1,1,0.387,-0.398,-0.353*
1,1,0.387,-0.398,0.353*
%
%ADD37ROUNDEDRECTD37*%
G04:AMPARAMS|DCode=38|XSize=1.092mm|YSize=1.182mm|CornerRadius=0.194mm|HoleSize=0mm|Usage=FLASHONLY|Rotation=0.000|XOffset=0mm|YOffset=0mm|HoleType=Round|Shape=RoundedRectangle|*
%AMROUNDEDRECTD38*
21,1,1.092,0.795,0,0,0.0*
21,1,0.705,1.182,0,0,0.0*
1,1,0.387,0.353,-0.398*
1,1,0.387,-0.353,-0.398*
1,1,0.387,-0.353,0.398*
1,1,0.387,0.353,0.398*
%
%ADD38ROUNDEDRECTD38*%
%ADD39C,3.468*%
%ADD40C,1.580*%
%ADD41R,1.580X1.580*%
%ADD42C,1.752*%
%ADD43R,1.752X1.752*%
%ADD44C,2.552*%
%ADD45R,2.552X2.552*%
%ADD46C,2.500*%
%ADD47C,3.900*%
%ADD48R,1.352X1.352*%
%ADD49C,1.352*%
%ADD50C,1.552*%
%ADD51R,1.552X1.552*%
%ADD52C,1.652*%
D17*
X19657Y4250D02*
D03*
X19157D02*
D03*
X18657D02*
D03*
X18157D02*
D03*
X17657D02*
D03*
X17157D02*
D03*
X16657D02*
D03*
X16157D02*
D03*
X15657D02*
D03*
X15157D02*
D03*
X14657D02*
D03*
X14157D02*
D03*
Y-4250D02*
D03*
X14657D02*
D03*
X15157D02*
D03*
X15657D02*
D03*
X16157D02*
D03*
X16657D02*
D03*
X17157D02*
D03*
X17657D02*
D03*
X18157D02*
D03*
X18657D02*
D03*
X19157D02*
D03*
X19657D02*
D03*
D18*
X12657Y2750D02*
D03*
Y2250D02*
D03*
Y1750D02*
D03*
Y1250D02*
D03*
Y750D02*
D03*
Y250D02*
D03*
Y-250D02*
D03*
Y-750D02*
D03*
Y-1250D02*
D03*
Y-1750D02*
D03*
Y-2250D02*
D03*
Y-2750D02*
D03*
X21157D02*
D03*
Y-2250D02*
D03*
Y-1750D02*
D03*
Y-1250D02*
D03*
Y-750D02*
D03*
Y-250D02*
D03*
Y250D02*
D03*
Y750D02*
D03*
Y1250D02*
D03*
Y1750D02*
D03*
Y2250D02*
D03*
Y2750D02*
D03*
D19*
X10387Y-20497D02*
D03*
X9738D02*
D03*
X10387Y-17378D02*
D03*
X9738D02*
D03*
D20*
X10062Y-18938D02*
D03*
D21*
X11583Y-17962D02*
D03*
Y-18612D02*
D03*
Y-19263D02*
D03*
Y-19913D02*
D03*
X8542D02*
D03*
Y-19263D02*
D03*
Y-18612D02*
D03*
Y-17962D02*
D03*
D22*
X1225Y-500D02*
D03*
Y0D02*
D03*
Y500D02*
D03*
X-1225D02*
D03*
Y0D02*
D03*
Y-500D02*
D03*
D23*
X1000Y1225D02*
D03*
X500D02*
D03*
X0D02*
D03*
X-500D02*
D03*
X-1000D02*
D03*
Y-1225D02*
D03*
X-500D02*
D03*
X0D02*
D03*
X500D02*
D03*
X1000D02*
D03*
D24*
X8400Y12174D02*
D03*
Y13774D02*
D03*
X6353Y13801D02*
D03*
Y12201D02*
D03*
D25*
X19626Y22347D02*
D03*
X18676Y20047D02*
D03*
X19626D02*
D03*
X20576D02*
D03*
Y22347D02*
D03*
X18676D02*
D03*
X-1946Y-24373D02*
D03*
X-996Y-22073D02*
D03*
X-1946D02*
D03*
X-2896D02*
D03*
Y-24373D02*
D03*
X-996D02*
D03*
D26*
X5700Y-4100D02*
D03*
X23506D02*
D03*
X5700Y-2250D02*
D03*
Y-400D02*
D03*
D27*
X38260Y25064D02*
D03*
Y22524D02*
D03*
X45485Y25064D02*
D03*
Y22524D02*
D03*
Y-15690D02*
D03*
Y-13150D02*
D03*
X38260Y-15690D02*
D03*
Y-13150D02*
D03*
X45485Y3417D02*
D03*
Y5957D02*
D03*
X38260Y3417D02*
D03*
Y5957D02*
D03*
X45485Y-6136D02*
D03*
Y-3596D02*
D03*
X38260Y-6136D02*
D03*
Y-3596D02*
D03*
Y15511D02*
D03*
Y12971D02*
D03*
X45485Y15511D02*
D03*
Y12971D02*
D03*
Y-25244D02*
D03*
Y-22704D02*
D03*
X38260Y-25244D02*
D03*
Y-22704D02*
D03*
D28*
X-7599Y-11625D02*
D03*
X-5699D02*
D03*
Y-14375D02*
D03*
X-6649D02*
D03*
X-7599D02*
D03*
D29*
X14262Y-14708D02*
D03*
Y-16767D02*
D03*
X-19150Y6709D02*
D03*
Y8769D02*
D03*
X-19150Y23769D02*
D03*
Y21709D02*
D03*
D30*
X14337Y-18538D02*
D03*
X16087D02*
D03*
X-5549Y-18000D02*
D03*
X-7299D02*
D03*
X22290Y6300D02*
D03*
X24040D02*
D03*
D31*
X6062Y-18062D02*
D03*
Y-19812D02*
D03*
X-7582Y-8050D02*
D03*
Y-9800D02*
D03*
D32*
X12312Y-14688D02*
D03*
X7812D02*
D03*
D33*
X-1946Y-28013D02*
D03*
Y-31773D02*
D03*
X-18350Y-300D02*
D03*
Y3460D02*
D03*
Y-13007D02*
D03*
Y-9247D02*
D03*
X-18350Y18460D02*
D03*
Y14700D02*
D03*
X54931Y-2878D02*
D03*
Y-6638D02*
D03*
Y25782D02*
D03*
Y22022D02*
D03*
Y6675D02*
D03*
Y2915D02*
D03*
Y12469D02*
D03*
Y16229D02*
D03*
Y-21986D02*
D03*
Y-25746D02*
D03*
Y-12432D02*
D03*
Y-16192D02*
D03*
D34*
X-1029Y-17829D02*
D03*
Y-16229D02*
D03*
X-2869Y-17829D02*
D03*
Y-16229D02*
D03*
X-11451Y7720D02*
D03*
Y6120D02*
D03*
X-13359Y7720D02*
D03*
Y6120D02*
D03*
X-11451Y21121D02*
D03*
Y22721D02*
D03*
X-13359Y21121D02*
D03*
Y22721D02*
D03*
X35353Y-13645D02*
D03*
Y-15245D02*
D03*
Y-4091D02*
D03*
Y-5691D02*
D03*
Y15016D02*
D03*
Y13416D02*
D03*
Y5462D02*
D03*
Y3862D02*
D03*
Y22969D02*
D03*
Y24569D02*
D03*
Y-23199D02*
D03*
Y-24799D02*
D03*
X8400Y8900D02*
D03*
Y7300D02*
D03*
X14250Y21997D02*
D03*
Y20397D02*
D03*
X6415Y8927D02*
D03*
Y7327D02*
D03*
X10624Y3712D02*
D03*
Y2112D02*
D03*
D35*
X-1408Y-20031D02*
D03*
X192D02*
D03*
X38884Y-8481D02*
D03*
X37284D02*
D03*
X38884Y10626D02*
D03*
X37284D02*
D03*
X50258Y23069D02*
D03*
X51858D02*
D03*
Y-5591D02*
D03*
X50258D02*
D03*
X38884Y1072D02*
D03*
X37284D02*
D03*
X50258Y3962D02*
D03*
X51858D02*
D03*
X37284Y20179D02*
D03*
X38884D02*
D03*
X51858Y13516D02*
D03*
X50258D02*
D03*
X38884Y-18035D02*
D03*
X37284D02*
D03*
X51858Y-24699D02*
D03*
X50258D02*
D03*
X38884Y-27588D02*
D03*
X37284D02*
D03*
X51858Y-15145D02*
D03*
X50258D02*
D03*
X10879Y-22538D02*
D03*
X9279D02*
D03*
X5936D02*
D03*
X7536D02*
D03*
X20219Y-9400D02*
D03*
X21819D02*
D03*
X20157Y6283D02*
D03*
X18557D02*
D03*
X24740Y959D02*
D03*
X23140D02*
D03*
D36*
X-16056Y5594D02*
D03*
X-17006Y7994D02*
D03*
X-15106D02*
D03*
X-15106Y22994D02*
D03*
X-17006D02*
D03*
X-16056Y20594D02*
D03*
D37*
X48374Y-15195D02*
D03*
Y-13595D02*
D03*
X33443Y-13641D02*
D03*
Y-15241D02*
D03*
Y-4087D02*
D03*
Y-5687D02*
D03*
Y13420D02*
D03*
Y15020D02*
D03*
X48374Y23019D02*
D03*
Y24619D02*
D03*
X33443Y24573D02*
D03*
Y22973D02*
D03*
X48374Y-5641D02*
D03*
Y-4041D02*
D03*
X33443Y5466D02*
D03*
Y3866D02*
D03*
X48374Y3912D02*
D03*
Y5512D02*
D03*
Y15066D02*
D03*
Y13466D02*
D03*
Y-24749D02*
D03*
Y-23149D02*
D03*
X33443Y-23195D02*
D03*
Y-24795D02*
D03*
X12250Y20422D02*
D03*
Y22022D02*
D03*
X-3325Y800D02*
D03*
Y-800D02*
D03*
X-5800Y-9950D02*
D03*
Y-8350D02*
D03*
X10599Y-2737D02*
D03*
Y-4337D02*
D03*
D38*
X-788Y-3325D02*
D03*
X812D02*
D03*
X-7449Y-16100D02*
D03*
X-5849D02*
D03*
X14070Y8300D02*
D03*
X15670D02*
D03*
Y6258D02*
D03*
X14070D02*
D03*
X23152Y2950D02*
D03*
X24752D02*
D03*
X20244Y-6258D02*
D03*
X21844D02*
D03*
X20157Y8300D02*
D03*
X18557D02*
D03*
D39*
X-10989Y-32395D02*
D03*
Y-20355D02*
D03*
X-24842Y-17697D02*
D03*
Y-4557D02*
D03*
D40*
X-8279Y-27625D02*
D03*
Y-25125D02*
D03*
X-6279D02*
D03*
X-22132Y-14627D02*
D03*
Y-12127D02*
D03*
Y-10127D02*
D03*
D41*
X-6279Y-27625D02*
D03*
X-22132Y-7627D02*
D03*
D42*
X6986Y21300D02*
D03*
X6990Y25390D02*
D03*
X9530D02*
D03*
X12070D02*
D03*
X14610D02*
D03*
X17150D02*
D03*
D43*
X9526Y21300D02*
D03*
X19690Y25390D02*
D03*
D44*
X-56759Y3894D02*
D03*
Y-1106D02*
D03*
X-56759Y13894D02*
D03*
Y18894D02*
D03*
D45*
X-56759Y8894D02*
D03*
X-56759Y23894D02*
D03*
D46*
X-47545Y8894D02*
D03*
X-40545D02*
D03*
X-44045Y1394D02*
D03*
X-23745Y8894D02*
D03*
Y1394D02*
D03*
X-23745Y16394D02*
D03*
Y23894D02*
D03*
X-44045Y16394D02*
D03*
X-40545Y23894D02*
D03*
X-47545D02*
D03*
D47*
X62000Y32000D02*
D03*
X-62000Y32000D02*
D03*
X62000Y-32000D02*
D03*
X-62000D02*
D03*
D48*
X60100Y15346D02*
D03*
Y5793D02*
D03*
Y-3761D02*
D03*
Y-13314D02*
D03*
Y24900D02*
D03*
Y-22868D02*
D03*
D49*
Y13346D02*
D03*
Y3793D02*
D03*
Y-5761D02*
D03*
Y-15314D02*
D03*
Y22900D02*
D03*
Y-24868D02*
D03*
D50*
X6400Y-30000D02*
D03*
X8400Y-30000D02*
D03*
X10400D02*
D03*
X12400D02*
D03*
X4400Y-30000D02*
D03*
X21400D02*
D03*
X23400Y-30000D02*
D03*
X25400D02*
D03*
X27400D02*
D03*
X19400Y-30000D02*
D03*
D51*
X14400Y-30000D02*
D03*
X29400D02*
D03*
D52*
X19347Y12000D02*
D03*
X14467D02*
D03*
M02*
