G04*
G04 #@! TF.GenerationSoftware,Altium Limited,Altium Designer,22.10.1 (41)*
G04*
G04 Layer_Physical_Order=2*
G04 Layer_Color=1930808*
%FSLAX43Y43*%
%MOMM*%
G71*
G04*
G04 #@! TF.SameCoordinates,B95FFBA6-6113-45C9-A07F-A258FB423046*
G04*
G04*
G04 #@! TF.FilePolarity,Positive*
G04*
G01*
G75*
%ADD78C,3.316*%
%ADD79C,1.428*%
%ADD81C,1.600*%
%ADD88C,1.400*%
%ADD91C,0.700*%
G36*
X56189Y34462D02*
X56369Y34387D01*
X56532Y34279D01*
X56670Y34141D01*
X56778Y33978D01*
X56853Y33798D01*
X56891Y33606D01*
X56891Y33509D01*
X56891Y-33509D01*
X56891Y-33509D01*
Y-33597D01*
X56857Y-33769D01*
X56790Y-33931D01*
X56692Y-34077D01*
X56568Y-34201D01*
X56422Y-34299D01*
X56260Y-34366D01*
X56088Y-34400D01*
X-10390D01*
X-10418Y-34278D01*
X-10062Y-34130D01*
X-9741Y-33916D01*
X-9468Y-33643D01*
X-9254Y-33322D01*
X-9106Y-32966D01*
X-9072Y-32795D01*
X-10989D01*
X-12906D01*
X-12872Y-32966D01*
X-12724Y-33322D01*
X-12510Y-33643D01*
X-12237Y-33916D01*
X-11917Y-34130D01*
X-11560Y-34278D01*
X-11588Y-34400D01*
X-26998D01*
X-27192Y-34362D01*
X-27374Y-34286D01*
X-27537Y-34177D01*
X-27677Y-34037D01*
X-27786Y-33874D01*
X-27862Y-33692D01*
X-27900Y-33499D01*
Y-33400D01*
Y33400D01*
X-27900Y33400D01*
X-27900Y33400D01*
X-27898Y33518D01*
X-27858Y33721D01*
X-27775Y33921D01*
X-27654Y34101D01*
X-27501Y34254D01*
X-27321Y34375D01*
X-27121Y34458D01*
X-26999Y34482D01*
X56088D01*
X56189Y34462D01*
D02*
G37*
%LPC*%
G36*
X15010Y26422D02*
Y25790D01*
X15642D01*
X15635Y25815D01*
X15490Y26066D01*
X15285Y26271D01*
X15035Y26416D01*
X15010Y26422D01*
D02*
G37*
G36*
X14210Y26422D02*
X14185Y26416D01*
X13935Y26271D01*
X13730Y26066D01*
X13585Y25815D01*
X13578Y25790D01*
X14210D01*
Y26422D01*
D02*
G37*
G36*
X-19060Y25586D02*
X-19249D01*
X-19425Y25513D01*
X-19559Y25379D01*
X-19632Y25204D01*
Y25014D01*
X-19559Y24839D01*
X-19425Y24704D01*
X-19249Y24632D01*
X-19060D01*
X-18884Y24704D01*
X-18750Y24839D01*
X-18677Y25014D01*
Y25204D01*
X-18750Y25379D01*
X-18884Y25513D01*
X-19060Y25586D01*
D02*
G37*
G36*
X20617Y26317D02*
X18763D01*
Y24463D01*
X20617D01*
Y26317D01*
D02*
G37*
G36*
X17272D02*
X17028D01*
X16792Y26254D01*
X16581Y26132D01*
X16408Y25960D01*
X16286Y25748D01*
X16223Y25513D01*
Y25268D01*
X16286Y25033D01*
X16408Y24821D01*
X16581Y24649D01*
X16792Y24527D01*
X17028Y24463D01*
X17272D01*
X17508Y24527D01*
X17719Y24649D01*
X17892Y24821D01*
X18014Y25033D01*
X18077Y25268D01*
Y25513D01*
X18014Y25748D01*
X17892Y25960D01*
X17719Y26132D01*
X17508Y26254D01*
X17272Y26317D01*
D02*
G37*
G36*
X12192D02*
X11948D01*
X11712Y26254D01*
X11501Y26132D01*
X11328Y25960D01*
X11206Y25748D01*
X11143Y25513D01*
Y25268D01*
X11206Y25033D01*
X11328Y24821D01*
X11501Y24649D01*
X11712Y24527D01*
X11948Y24463D01*
X12192D01*
X12428Y24527D01*
X12639Y24649D01*
X12812Y24821D01*
X12934Y25033D01*
X12997Y25268D01*
Y25513D01*
X12934Y25748D01*
X12812Y25960D01*
X12639Y26132D01*
X12428Y26254D01*
X12192Y26317D01*
D02*
G37*
G36*
X9652D02*
X9408D01*
X9172Y26254D01*
X8961Y26132D01*
X8788Y25960D01*
X8666Y25748D01*
X8603Y25513D01*
Y25268D01*
X8666Y25033D01*
X8788Y24821D01*
X8961Y24649D01*
X9172Y24527D01*
X9408Y24463D01*
X9652D01*
X9888Y24527D01*
X10099Y24649D01*
X10272Y24821D01*
X10394Y25033D01*
X10457Y25268D01*
Y25513D01*
X10394Y25748D01*
X10272Y25960D01*
X10099Y26132D01*
X9888Y26254D01*
X9652Y26317D01*
D02*
G37*
G36*
X7112D02*
X6868D01*
X6632Y26254D01*
X6421Y26132D01*
X6248Y25960D01*
X6126Y25748D01*
X6063Y25513D01*
Y25268D01*
X6126Y25033D01*
X6248Y24821D01*
X6421Y24649D01*
X6632Y24527D01*
X6868Y24463D01*
X7112D01*
X7348Y24527D01*
X7559Y24649D01*
X7732Y24821D01*
X7854Y25033D01*
X7917Y25268D01*
Y25513D01*
X7854Y25748D01*
X7732Y25960D01*
X7559Y26132D01*
X7348Y26254D01*
X7112Y26317D01*
D02*
G37*
G36*
X15642Y24990D02*
X15010D01*
Y24359D01*
X15035Y24365D01*
X15285Y24510D01*
X15490Y24715D01*
X15635Y24966D01*
X15642Y24990D01*
D02*
G37*
G36*
X14210D02*
X13578D01*
X13585Y24966D01*
X13730Y24715D01*
X13935Y24510D01*
X14185Y24365D01*
X14210Y24359D01*
Y24990D01*
D02*
G37*
G36*
X32188Y25050D02*
X31998D01*
X31822Y24978D01*
X31688Y24843D01*
X31616Y24668D01*
Y24478D01*
X31688Y24303D01*
X31822Y24169D01*
X31998Y24096D01*
X32188D01*
X32363Y24169D01*
X32497Y24303D01*
X32570Y24478D01*
Y24668D01*
X32497Y24843D01*
X32363Y24978D01*
X32188Y25050D01*
D02*
G37*
G36*
X51957Y24942D02*
X51768D01*
X51592Y24870D01*
X51458Y24736D01*
X51385Y24560D01*
Y24371D01*
X51458Y24195D01*
X51592Y24061D01*
X51768Y23988D01*
X51957D01*
X52133Y24061D01*
X52267Y24195D01*
X52339Y24371D01*
Y24560D01*
X52267Y24736D01*
X52133Y24870D01*
X51957Y24942D01*
D02*
G37*
G36*
X14321Y23702D02*
X14131D01*
X13956Y23630D01*
X13822Y23496D01*
X13749Y23320D01*
Y23130D01*
X13822Y22955D01*
X13956Y22821D01*
X14131Y22748D01*
X14321D01*
X14496Y22821D01*
X14631Y22955D01*
X14703Y23130D01*
Y23320D01*
X14631Y23496D01*
X14496Y23630D01*
X14321Y23702D01*
D02*
G37*
G36*
X-23576Y25171D02*
X-23913D01*
X-24237Y25084D01*
X-24529Y24916D01*
X-24766Y24678D01*
X-24935Y24387D01*
X-25022Y24062D01*
Y23726D01*
X-24935Y23401D01*
X-24766Y23110D01*
X-24529Y22872D01*
X-24237Y22704D01*
X-23913Y22617D01*
X-23576D01*
X-23252Y22704D01*
X-22960Y22872D01*
X-22723Y23110D01*
X-22555Y23401D01*
X-22468Y23726D01*
Y24062D01*
X-22555Y24387D01*
X-22723Y24678D01*
X-22960Y24916D01*
X-23252Y25084D01*
X-23576Y25171D01*
D02*
G37*
G36*
X17642Y22824D02*
X17452D01*
X17276Y22751D01*
X17142Y22617D01*
X17070Y22441D01*
Y22252D01*
X17142Y22076D01*
X17276Y21942D01*
X17452Y21870D01*
X17642D01*
X17817Y21942D01*
X17951Y22076D01*
X18024Y22252D01*
Y22441D01*
X17951Y22617D01*
X17817Y22751D01*
X17642Y22824D01*
D02*
G37*
G36*
X7386Y22332D02*
Y21700D01*
X8018D01*
X8011Y21725D01*
X7866Y21975D01*
X7661Y22180D01*
X7411Y22325D01*
X7386Y22332D01*
D02*
G37*
G36*
X6586Y22332D02*
X6561Y22325D01*
X6311Y22180D01*
X6106Y21975D01*
X5961Y21725D01*
X5954Y21700D01*
X6586D01*
Y22332D01*
D02*
G37*
G36*
X51948Y22171D02*
X51758D01*
X51583Y22099D01*
X51448Y21965D01*
X51376Y21789D01*
Y21600D01*
X51448Y21424D01*
X51583Y21290D01*
X51758Y21217D01*
X51948D01*
X52123Y21290D01*
X52257Y21424D01*
X52330Y21600D01*
Y21789D01*
X52257Y21965D01*
X52123Y22099D01*
X51948Y22171D01*
D02*
G37*
G36*
X21589Y21683D02*
X21399D01*
X21224Y21610D01*
X21090Y21476D01*
X21017Y21301D01*
Y21111D01*
X21090Y20936D01*
X21224Y20802D01*
X21399Y20729D01*
X21589D01*
X21764Y20802D01*
X21898Y20936D01*
X21971Y21111D01*
Y21301D01*
X21898Y21476D01*
X21764Y21610D01*
X21589Y21683D01*
D02*
G37*
G36*
X16436Y21661D02*
X16246D01*
X16071Y21588D01*
X15937Y21454D01*
X15864Y21279D01*
Y21089D01*
X15937Y20914D01*
X16071Y20779D01*
X16246Y20707D01*
X16436D01*
X16612Y20779D01*
X16746Y20914D01*
X16818Y21089D01*
Y21279D01*
X16746Y21454D01*
X16612Y21588D01*
X16436Y21661D01*
D02*
G37*
G36*
X10453Y22227D02*
X8599D01*
Y20373D01*
X10453D01*
Y22227D01*
D02*
G37*
G36*
X6586Y20900D02*
X5954D01*
X5961Y20875D01*
X6106Y20625D01*
X6311Y20420D01*
X6561Y20275D01*
X6586Y20268D01*
Y20900D01*
D02*
G37*
G36*
X8018D02*
X7386D01*
Y20268D01*
X7411Y20275D01*
X7661Y20420D01*
X7866Y20625D01*
X8011Y20875D01*
X8018Y20900D01*
D02*
G37*
G36*
X40359Y20656D02*
X40169D01*
X39994Y20584D01*
X39859Y20450D01*
X39787Y20274D01*
Y20085D01*
X39859Y19909D01*
X39994Y19775D01*
X40169Y19702D01*
X40359D01*
X40534Y19775D01*
X40668Y19909D01*
X40741Y20085D01*
Y20274D01*
X40668Y20450D01*
X40534Y20584D01*
X40359Y20656D01*
D02*
G37*
G36*
X21799Y20524D02*
X21610D01*
X21434Y20451D01*
X21300Y20317D01*
X21228Y20142D01*
Y19952D01*
X21300Y19776D01*
X21434Y19642D01*
X21610Y19570D01*
X21799D01*
X21975Y19642D01*
X22109Y19776D01*
X22182Y19952D01*
Y20142D01*
X22109Y20317D01*
X21975Y20451D01*
X21799Y20524D01*
D02*
G37*
G36*
X21804Y17844D02*
X21615D01*
X21439Y17772D01*
X21305Y17637D01*
X21232Y17462D01*
Y17272D01*
X21305Y17097D01*
X21439Y16963D01*
X21615Y16890D01*
X21804D01*
X21980Y16963D01*
X22114Y17097D01*
X22186Y17272D01*
Y17462D01*
X22114Y17637D01*
X21980Y17772D01*
X21804Y17844D01*
D02*
G37*
G36*
X-23576Y17671D02*
X-23913D01*
X-24237Y17584D01*
X-24529Y17416D01*
X-24766Y17178D01*
X-24935Y16887D01*
X-25022Y16562D01*
Y16226D01*
X-24935Y15901D01*
X-24766Y15610D01*
X-24529Y15372D01*
X-24237Y15204D01*
X-23913Y15117D01*
X-23576D01*
X-23252Y15204D01*
X-22960Y15372D01*
X-22723Y15610D01*
X-22555Y15901D01*
X-22468Y16226D01*
Y16562D01*
X-22555Y16887D01*
X-22723Y17178D01*
X-22960Y17416D01*
X-23252Y17584D01*
X-23576Y17671D01*
D02*
G37*
G36*
X32188Y15497D02*
X31998D01*
X31822Y15424D01*
X31688Y15290D01*
X31616Y15115D01*
Y14925D01*
X31688Y14749D01*
X31822Y14615D01*
X31998Y14543D01*
X32188D01*
X32363Y14615D01*
X32497Y14749D01*
X32570Y14925D01*
Y15115D01*
X32497Y15290D01*
X32363Y15424D01*
X32188Y15497D01*
D02*
G37*
G36*
X51957Y15389D02*
X51768D01*
X51592Y15316D01*
X51458Y15182D01*
X51385Y15007D01*
Y14817D01*
X51458Y14642D01*
X51592Y14507D01*
X51768Y14435D01*
X51957D01*
X52133Y14507D01*
X52267Y14642D01*
X52339Y14817D01*
Y15007D01*
X52267Y15182D01*
X52133Y15316D01*
X51957Y15389D01*
D02*
G37*
G36*
X51948Y12618D02*
X51758D01*
X51583Y12545D01*
X51448Y12411D01*
X51376Y12236D01*
Y12046D01*
X51448Y11871D01*
X51583Y11736D01*
X51758Y11664D01*
X51948D01*
X52123Y11736D01*
X52257Y11871D01*
X52330Y12046D01*
Y12236D01*
X52257Y12411D01*
X52123Y12545D01*
X51948Y12618D01*
D02*
G37*
G36*
X19462Y12877D02*
X19231D01*
X19008Y12817D01*
X18808Y12702D01*
X18645Y12538D01*
X18529Y12339D01*
X18470Y12115D01*
Y11885D01*
X18529Y11661D01*
X18645Y11462D01*
X18808Y11298D01*
X19008Y11183D01*
X19231Y11123D01*
X19462D01*
X19685Y11183D01*
X19885Y11298D01*
X20048Y11462D01*
X20164Y11661D01*
X20224Y11885D01*
Y12115D01*
X20164Y12339D01*
X20048Y12538D01*
X19885Y12702D01*
X19685Y12817D01*
X19462Y12877D01*
D02*
G37*
G36*
X14582D02*
X14351D01*
X14128Y12817D01*
X13928Y12702D01*
X13765Y12538D01*
X13649Y12339D01*
X13590Y12115D01*
Y11885D01*
X13649Y11661D01*
X13765Y11462D01*
X13928Y11298D01*
X14128Y11183D01*
X14351Y11123D01*
X14582D01*
X14805Y11183D01*
X15005Y11298D01*
X15168Y11462D01*
X15284Y11661D01*
X15344Y11885D01*
Y12115D01*
X15284Y12339D01*
X15168Y12538D01*
X15005Y12702D01*
X14805Y12817D01*
X14582Y12877D01*
D02*
G37*
G36*
X40359Y11103D02*
X40169D01*
X39994Y11030D01*
X39859Y10896D01*
X39787Y10721D01*
Y10531D01*
X39859Y10356D01*
X39994Y10221D01*
X40169Y10149D01*
X40359D01*
X40534Y10221D01*
X40668Y10356D01*
X40741Y10531D01*
Y10721D01*
X40668Y10896D01*
X40534Y11030D01*
X40359Y11103D01*
D02*
G37*
G36*
X-19060Y10585D02*
X-19249D01*
X-19425Y10513D01*
X-19559Y10379D01*
X-19631Y10203D01*
Y10014D01*
X-19559Y9838D01*
X-19425Y9704D01*
X-19249Y9631D01*
X-19060D01*
X-18884Y9704D01*
X-18750Y9838D01*
X-18677Y10014D01*
Y10203D01*
X-18750Y10379D01*
X-18884Y10513D01*
X-19060Y10585D01*
D02*
G37*
G36*
X-23576Y10171D02*
X-23913D01*
X-24237Y10084D01*
X-24529Y9916D01*
X-24766Y9678D01*
X-24935Y9387D01*
X-25022Y9062D01*
Y8726D01*
X-24935Y8401D01*
X-24766Y8110D01*
X-24529Y7872D01*
X-24237Y7704D01*
X-23913Y7617D01*
X-23576D01*
X-23252Y7704D01*
X-22960Y7872D01*
X-22723Y8110D01*
X-22555Y8401D01*
X-22468Y8726D01*
Y9062D01*
X-22555Y9387D01*
X-22723Y9678D01*
X-22960Y9916D01*
X-23252Y10084D01*
X-23576Y10171D01*
D02*
G37*
G36*
X22385Y8127D02*
X22195D01*
X22019Y8054D01*
X21885Y7920D01*
X21813Y7745D01*
Y7555D01*
X21885Y7380D01*
X22019Y7246D01*
X22195Y7173D01*
X22385D01*
X22560Y7246D01*
X22694Y7380D01*
X22767Y7555D01*
Y7745D01*
X22694Y7920D01*
X22560Y8054D01*
X22385Y8127D01*
D02*
G37*
G36*
X16602Y7722D02*
X16413D01*
X16237Y7650D01*
X16103Y7516D01*
X16030Y7340D01*
Y7150D01*
X16103Y6975D01*
X16237Y6841D01*
X16413Y6768D01*
X16602D01*
X16778Y6841D01*
X16912Y6975D01*
X16984Y7150D01*
Y7340D01*
X16912Y7516D01*
X16778Y7650D01*
X16602Y7722D01*
D02*
G37*
G36*
X11521Y7106D02*
X11331D01*
X11156Y7033D01*
X11022Y6899D01*
X10949Y6724D01*
Y6534D01*
X11022Y6359D01*
X11156Y6225D01*
X11331Y6152D01*
X11521D01*
X11696Y6225D01*
X11831Y6359D01*
X11903Y6534D01*
Y6724D01*
X11831Y6899D01*
X11696Y7033D01*
X11521Y7106D01*
D02*
G37*
G36*
X8486Y6575D02*
X8296D01*
X8121Y6503D01*
X7986Y6368D01*
X7914Y6193D01*
Y6003D01*
X7986Y5828D01*
X8121Y5694D01*
X8296Y5621D01*
X8486D01*
X8661Y5694D01*
X8795Y5828D01*
X8868Y6003D01*
Y6193D01*
X8795Y6368D01*
X8661Y6503D01*
X8486Y6575D01*
D02*
G37*
G36*
X32188Y5943D02*
X31998D01*
X31822Y5870D01*
X31688Y5736D01*
X31616Y5561D01*
Y5371D01*
X31688Y5196D01*
X31822Y5062D01*
X31998Y4989D01*
X32188D01*
X32363Y5062D01*
X32497Y5196D01*
X32570Y5371D01*
Y5561D01*
X32497Y5736D01*
X32363Y5870D01*
X32188Y5943D01*
D02*
G37*
G36*
X51957Y5835D02*
X51768D01*
X51592Y5763D01*
X51458Y5628D01*
X51385Y5453D01*
Y5263D01*
X51458Y5088D01*
X51592Y4954D01*
X51768Y4881D01*
X51957D01*
X52133Y4954D01*
X52267Y5088D01*
X52339Y5263D01*
Y5453D01*
X52267Y5628D01*
X52133Y5763D01*
X51957Y5835D01*
D02*
G37*
G36*
X23301Y5474D02*
X23111D01*
X22936Y5402D01*
X22801Y5268D01*
X22729Y5092D01*
Y4903D01*
X22801Y4727D01*
X22936Y4593D01*
X23111Y4520D01*
X23301D01*
X23476Y4593D01*
X23610Y4727D01*
X23683Y4903D01*
Y5092D01*
X23610Y5268D01*
X23476Y5402D01*
X23301Y5474D01*
D02*
G37*
G36*
X12845Y4677D02*
X12655D01*
X12480Y4604D01*
X12345Y4470D01*
X12273Y4295D01*
Y4105D01*
X12345Y3930D01*
X12480Y3795D01*
X12655Y3723D01*
X12845D01*
X13020Y3795D01*
X13154Y3930D01*
X13227Y4105D01*
Y4295D01*
X13154Y4470D01*
X13020Y4604D01*
X12845Y4677D01*
D02*
G37*
G36*
X14758Y3324D02*
X14568D01*
X14393Y3251D01*
X14259Y3117D01*
X14186Y2941D01*
Y2752D01*
X14259Y2576D01*
X14393Y2442D01*
X14568Y2370D01*
X14758D01*
X14933Y2442D01*
X15067Y2576D01*
X15140Y2752D01*
Y2941D01*
X15067Y3117D01*
X14933Y3251D01*
X14758Y3324D01*
D02*
G37*
G36*
X51948Y3064D02*
X51758D01*
X51583Y2992D01*
X51448Y2857D01*
X51376Y2682D01*
Y2492D01*
X51448Y2317D01*
X51583Y2183D01*
X51758Y2110D01*
X51948D01*
X52123Y2183D01*
X52257Y2317D01*
X52330Y2492D01*
Y2682D01*
X52257Y2857D01*
X52123Y2992D01*
X51948Y3064D01*
D02*
G37*
G36*
X22444Y2458D02*
X22254D01*
X22079Y2386D01*
X21944Y2252D01*
X21872Y2076D01*
Y1886D01*
X21944Y1711D01*
X22079Y1577D01*
X22254Y1504D01*
X22444D01*
X22619Y1577D01*
X22753Y1711D01*
X22826Y1886D01*
Y2076D01*
X22753Y2252D01*
X22619Y2386D01*
X22444Y2458D01*
D02*
G37*
G36*
X24047Y2421D02*
X23857D01*
X23681Y2348D01*
X23547Y2214D01*
X23475Y2039D01*
Y1849D01*
X23547Y1674D01*
X23681Y1540D01*
X23857Y1467D01*
X24047D01*
X24222Y1540D01*
X24356Y1674D01*
X24429Y1849D01*
Y2039D01*
X24356Y2214D01*
X24222Y2348D01*
X24047Y2421D01*
D02*
G37*
G36*
X40359Y1549D02*
X40169D01*
X39994Y1477D01*
X39859Y1342D01*
X39787Y1167D01*
Y977D01*
X39859Y802D01*
X39994Y668D01*
X40169Y595D01*
X40359D01*
X40534Y668D01*
X40668Y802D01*
X40741Y977D01*
Y1167D01*
X40668Y1342D01*
X40534Y1477D01*
X40359Y1549D01*
D02*
G37*
G36*
X-4481Y1279D02*
X-4671D01*
X-4846Y1206D01*
X-4980Y1072D01*
X-5053Y897D01*
Y707D01*
X-4980Y532D01*
X-4846Y398D01*
X-4671Y325D01*
X-4481D01*
X-4306Y398D01*
X-4171Y532D01*
X-4099Y707D01*
Y897D01*
X-4171Y1072D01*
X-4306Y1206D01*
X-4481Y1279D01*
D02*
G37*
G36*
X-23576Y2671D02*
X-23913D01*
X-24237Y2584D01*
X-24529Y2416D01*
X-24766Y2178D01*
X-24935Y1887D01*
X-25022Y1562D01*
Y1226D01*
X-24935Y901D01*
X-24766Y610D01*
X-24529Y372D01*
X-24237Y204D01*
X-23913Y117D01*
X-23576D01*
X-23252Y204D01*
X-22960Y372D01*
X-22723Y610D01*
X-22555Y901D01*
X-22468Y1226D01*
Y1562D01*
X-22555Y1887D01*
X-22723Y2178D01*
X-22960Y2416D01*
X-23252Y2584D01*
X-23576Y2671D01*
D02*
G37*
G36*
X14240Y733D02*
X14050D01*
X13875Y661D01*
X13741Y527D01*
X13668Y351D01*
Y162D01*
X13741Y-14D01*
X13875Y-148D01*
X14050Y-221D01*
X14240D01*
X14415Y-148D01*
X14549Y-14D01*
X14622Y162D01*
Y351D01*
X14549Y527D01*
X14415Y661D01*
X14240Y733D01*
D02*
G37*
G36*
X19821Y1201D02*
X19632D01*
X19456Y1129D01*
X19322Y995D01*
X19249Y819D01*
Y630D01*
X19322Y454D01*
X19456Y320D01*
X19534Y288D01*
Y150D01*
X19456Y118D01*
X19322Y-16D01*
X19249Y-191D01*
Y-381D01*
X19322Y-557D01*
X19456Y-691D01*
X19632Y-763D01*
X19821D01*
X19997Y-691D01*
X20131Y-557D01*
X20203Y-381D01*
Y-191D01*
X20131Y-16D01*
X19997Y118D01*
X19919Y150D01*
Y288D01*
X19997Y320D01*
X20131Y454D01*
X20203Y630D01*
Y819D01*
X20131Y995D01*
X19997Y1129D01*
X19821Y1201D01*
D02*
G37*
G36*
X16395Y292D02*
X16205D01*
X16030Y220D01*
X15896Y85D01*
X15823Y-90D01*
Y-280D01*
X15896Y-455D01*
X16030Y-589D01*
X16048Y-596D01*
Y-734D01*
X16025Y-743D01*
X15891Y-877D01*
X15818Y-1053D01*
Y-1242D01*
X15891Y-1418D01*
X16025Y-1552D01*
X16200Y-1625D01*
X16390D01*
X16566Y-1552D01*
X16700Y-1418D01*
X16736Y-1331D01*
X16873D01*
X16891Y-1375D01*
X17025Y-1509D01*
X17200Y-1582D01*
X17390D01*
X17566Y-1509D01*
X17673Y-1402D01*
X17740Y-1382D01*
X17828Y-1398D01*
X17930Y-1500D01*
X18105Y-1572D01*
X18295D01*
X18470Y-1500D01*
X18604Y-1366D01*
X18677Y-1190D01*
Y-1000D01*
X18604Y-825D01*
X18470Y-691D01*
X18295Y-618D01*
X18105D01*
X17930Y-691D01*
X17822Y-798D01*
X17756Y-818D01*
X17668Y-802D01*
X17566Y-700D01*
X17390Y-628D01*
X17200D01*
X17025Y-700D01*
X16891Y-834D01*
X16855Y-921D01*
X16718D01*
X16700Y-877D01*
X16566Y-743D01*
X16548Y-736D01*
Y-598D01*
X16571Y-589D01*
X16705Y-455D01*
X16777Y-280D01*
Y-90D01*
X16705Y85D01*
X16571Y220D01*
X16395Y292D01*
D02*
G37*
G36*
X9394Y-2260D02*
X9204D01*
X9028Y-2333D01*
X8894Y-2467D01*
X8822Y-2642D01*
Y-2832D01*
X8894Y-3007D01*
X9028Y-3141D01*
X9204Y-3214D01*
X9394D01*
X9569Y-3141D01*
X9703Y-3007D01*
X9776Y-2832D01*
Y-2642D01*
X9703Y-2467D01*
X9569Y-2333D01*
X9394Y-2260D01*
D02*
G37*
G36*
X18276Y-2332D02*
X18087D01*
X17911Y-2405D01*
X17777Y-2539D01*
X17704Y-2714D01*
Y-2904D01*
X17777Y-3079D01*
X17911Y-3213D01*
X18087Y-3286D01*
X18276D01*
X18452Y-3213D01*
X18586Y-3079D01*
X18658Y-2904D01*
Y-2714D01*
X18586Y-2539D01*
X18452Y-2405D01*
X18276Y-2332D01*
D02*
G37*
G36*
X-24442Y-2640D02*
Y-4157D01*
X-22926D01*
X-22960Y-3986D01*
X-23107Y-3629D01*
X-23321Y-3309D01*
X-23594Y-3036D01*
X-23915Y-2822D01*
X-24271Y-2674D01*
X-24442Y-2640D01*
D02*
G37*
G36*
X-25242Y-2640D02*
X-25413Y-2674D01*
X-25770Y-2822D01*
X-26090Y-3036D01*
X-26363Y-3309D01*
X-26577Y-3629D01*
X-26725Y-3986D01*
X-26759Y-4157D01*
X-25242D01*
Y-2640D01*
D02*
G37*
G36*
X32188Y-3611D02*
X31998D01*
X31822Y-3683D01*
X31688Y-3817D01*
X31616Y-3993D01*
Y-4182D01*
X31688Y-4358D01*
X31822Y-4492D01*
X31998Y-4565D01*
X32188D01*
X32363Y-4492D01*
X32497Y-4358D01*
X32570Y-4182D01*
Y-3993D01*
X32497Y-3817D01*
X32363Y-3683D01*
X32188Y-3611D01*
D02*
G37*
G36*
X51957Y-3718D02*
X51768D01*
X51592Y-3791D01*
X51458Y-3925D01*
X51385Y-4100D01*
Y-4290D01*
X51458Y-4466D01*
X51592Y-4600D01*
X51768Y-4672D01*
X51957D01*
X52133Y-4600D01*
X52267Y-4466D01*
X52339Y-4290D01*
Y-4100D01*
X52267Y-3925D01*
X52133Y-3791D01*
X51957Y-3718D01*
D02*
G37*
G36*
X-695Y-4099D02*
X-884D01*
X-1060Y-4171D01*
X-1194Y-4306D01*
X-1267Y-4481D01*
Y-4671D01*
X-1194Y-4846D01*
X-1060Y-4980D01*
X-884Y-5053D01*
X-695D01*
X-519Y-4980D01*
X-385Y-4846D01*
X-313Y-4671D01*
Y-4481D01*
X-385Y-4306D01*
X-519Y-4171D01*
X-695Y-4099D01*
D02*
G37*
G36*
X-17377Y-6112D02*
X-17567D01*
X-17742Y-6185D01*
X-17844Y-6286D01*
X-17922Y-6307D01*
X-18000Y-6286D01*
X-18102Y-6185D01*
X-18277Y-6112D01*
X-18467D01*
X-18642Y-6185D01*
X-18744Y-6286D01*
X-18822Y-6307D01*
X-18900Y-6286D01*
X-19002Y-6185D01*
X-19177Y-6112D01*
X-19367D01*
X-19542Y-6185D01*
X-19676Y-6319D01*
X-19749Y-6494D01*
Y-6684D01*
X-19676Y-6859D01*
X-19542Y-6993D01*
X-19525Y-7000D01*
Y-7127D01*
X-19542Y-7135D01*
X-19676Y-7269D01*
X-19749Y-7444D01*
Y-7634D01*
X-19676Y-7809D01*
X-19542Y-7943D01*
X-19367Y-8016D01*
X-19177D01*
X-19002Y-7943D01*
X-18900Y-7842D01*
X-18822Y-7821D01*
X-18744Y-7842D01*
X-18642Y-7943D01*
X-18467Y-8016D01*
X-18277D01*
X-18102Y-7943D01*
X-18000Y-7842D01*
X-17922Y-7821D01*
X-17844Y-7842D01*
X-17742Y-7943D01*
X-17567Y-8016D01*
X-17377D01*
X-17202Y-7943D01*
X-17068Y-7809D01*
X-16995Y-7634D01*
Y-7444D01*
X-17068Y-7269D01*
X-17202Y-7135D01*
X-17219Y-7127D01*
Y-7000D01*
X-17202Y-6993D01*
X-17068Y-6859D01*
X-16995Y-6684D01*
Y-6494D01*
X-17068Y-6319D01*
X-17202Y-6185D01*
X-17377Y-6112D01*
D02*
G37*
G36*
X-22926Y-4957D02*
X-24442D01*
Y-6474D01*
X-24271Y-6440D01*
X-23915Y-6292D01*
X-23594Y-6078D01*
X-23321Y-5805D01*
X-23107Y-5484D01*
X-22960Y-5128D01*
X-22926Y-4957D01*
D02*
G37*
G36*
X-25242D02*
X-26759D01*
X-26725Y-5128D01*
X-26577Y-5484D01*
X-26363Y-5805D01*
X-26090Y-6078D01*
X-25770Y-6292D01*
X-25413Y-6440D01*
X-25242Y-6474D01*
Y-4957D01*
D02*
G37*
G36*
X51948Y-6489D02*
X51758D01*
X51583Y-6562D01*
X51448Y-6696D01*
X51376Y-6871D01*
Y-7061D01*
X51448Y-7236D01*
X51583Y-7371D01*
X51758Y-7443D01*
X51948D01*
X52123Y-7371D01*
X52257Y-7236D01*
X52330Y-7061D01*
Y-6871D01*
X52257Y-6696D01*
X52123Y-6562D01*
X51948Y-6489D01*
D02*
G37*
G36*
X20339Y-7131D02*
X20149D01*
X19974Y-7204D01*
X19839Y-7338D01*
X19767Y-7513D01*
Y-7703D01*
X19839Y-7878D01*
X19974Y-8012D01*
X20149Y-8085D01*
X20339D01*
X20514Y-8012D01*
X20648Y-7878D01*
X20721Y-7703D01*
Y-7513D01*
X20648Y-7338D01*
X20514Y-7204D01*
X20339Y-7131D01*
D02*
G37*
G36*
X-21291Y-6786D02*
X-22973D01*
Y-8468D01*
X-21291D01*
Y-6786D01*
D02*
G37*
G36*
X40359Y-8004D02*
X40169D01*
X39994Y-8077D01*
X39859Y-8211D01*
X39787Y-8386D01*
Y-8576D01*
X39859Y-8752D01*
X39994Y-8886D01*
X40169Y-8958D01*
X40359D01*
X40534Y-8886D01*
X40668Y-8752D01*
X40741Y-8576D01*
Y-8386D01*
X40668Y-8211D01*
X40534Y-8077D01*
X40359Y-8004D01*
D02*
G37*
G36*
X-3355Y-9124D02*
X-3545D01*
X-3720Y-9196D01*
X-3855Y-9331D01*
X-3862Y-9348D01*
X-3989D01*
X-3996Y-9331D01*
X-4130Y-9196D01*
X-4305Y-9124D01*
X-4495D01*
X-4670Y-9196D01*
X-4804Y-9331D01*
X-4877Y-9506D01*
Y-9696D01*
X-4804Y-9871D01*
X-4703Y-9973D01*
X-4682Y-10051D01*
X-4703Y-10129D01*
X-4804Y-10231D01*
X-4877Y-10406D01*
Y-10596D01*
X-4804Y-10771D01*
X-4670Y-10905D01*
X-4495Y-10978D01*
X-4305D01*
X-4130Y-10905D01*
X-3996Y-10771D01*
X-3989Y-10754D01*
X-3862D01*
X-3855Y-10771D01*
X-3720Y-10905D01*
X-3545Y-10978D01*
X-3355D01*
X-3180Y-10905D01*
X-3046Y-10771D01*
X-2973Y-10596D01*
Y-10406D01*
X-3046Y-10231D01*
X-3147Y-10129D01*
X-3168Y-10051D01*
X-3147Y-9973D01*
X-3046Y-9871D01*
X-2973Y-9696D01*
Y-9506D01*
X-3046Y-9331D01*
X-3180Y-9196D01*
X-3355Y-9124D01*
D02*
G37*
G36*
X-22022Y-9286D02*
X-22243D01*
X-22457Y-9343D01*
X-22649Y-9454D01*
X-22805Y-9610D01*
X-22916Y-9802D01*
X-22973Y-10016D01*
Y-10237D01*
X-22916Y-10451D01*
X-22805Y-10643D01*
X-22649Y-10800D01*
X-22457Y-10910D01*
X-22243Y-10968D01*
X-22022D01*
X-21808Y-10910D01*
X-21616Y-10800D01*
X-21459Y-10643D01*
X-21349Y-10451D01*
X-21291Y-10237D01*
Y-10016D01*
X-21349Y-9802D01*
X-21459Y-9610D01*
X-21616Y-9454D01*
X-21808Y-9343D01*
X-22022Y-9286D01*
D02*
G37*
G36*
X21914Y-10273D02*
X21724D01*
X21549Y-10346D01*
X21414Y-10480D01*
X21342Y-10655D01*
Y-10845D01*
X21414Y-11020D01*
X21549Y-11154D01*
X21724Y-11227D01*
X21914D01*
X22089Y-11154D01*
X22223Y-11020D01*
X22296Y-10845D01*
Y-10655D01*
X22223Y-10480D01*
X22089Y-10346D01*
X21914Y-10273D01*
D02*
G37*
G36*
X-22022Y-11286D02*
X-22243D01*
X-22457Y-11343D01*
X-22649Y-11454D01*
X-22805Y-11610D01*
X-22916Y-11802D01*
X-22973Y-12016D01*
Y-12237D01*
X-22916Y-12451D01*
X-22805Y-12643D01*
X-22649Y-12800D01*
X-22457Y-12910D01*
X-22243Y-12968D01*
X-22022D01*
X-21808Y-12910D01*
X-21616Y-12800D01*
X-21459Y-12643D01*
X-21349Y-12451D01*
X-21291Y-12237D01*
Y-12016D01*
X-21349Y-11802D01*
X-21459Y-11610D01*
X-21616Y-11454D01*
X-21808Y-11343D01*
X-22022Y-11286D01*
D02*
G37*
G36*
X32187Y-13164D02*
X31998D01*
X31822Y-13237D01*
X31688Y-13371D01*
X31616Y-13546D01*
Y-13736D01*
X31688Y-13911D01*
X31822Y-14045D01*
X31998Y-14118D01*
X32187D01*
X32363Y-14045D01*
X32497Y-13911D01*
X32570Y-13736D01*
Y-13546D01*
X32497Y-13371D01*
X32363Y-13237D01*
X32187Y-13164D01*
D02*
G37*
G36*
X51957Y-13272D02*
X51768D01*
X51592Y-13345D01*
X51458Y-13479D01*
X51385Y-13654D01*
Y-13844D01*
X51458Y-14019D01*
X51592Y-14153D01*
X51768Y-14226D01*
X51957D01*
X52133Y-14153D01*
X52267Y-14019D01*
X52339Y-13844D01*
Y-13654D01*
X52267Y-13479D01*
X52133Y-13345D01*
X51957Y-13272D01*
D02*
G37*
G36*
X-21732Y-13687D02*
Y-14227D01*
X-21192D01*
X-21321Y-14004D01*
X-21510Y-13815D01*
X-21732Y-13687D01*
D02*
G37*
G36*
X-22532Y-13687D02*
X-22755Y-13815D01*
X-22944Y-14004D01*
X-23072Y-14227D01*
X-22532D01*
Y-13687D01*
D02*
G37*
G36*
X-21192Y-15027D02*
X-21732D01*
Y-15567D01*
X-21510Y-15438D01*
X-21321Y-15249D01*
X-21192Y-15027D01*
D02*
G37*
G36*
X-22532D02*
X-23072D01*
X-22944Y-15249D01*
X-22755Y-15438D01*
X-22532Y-15567D01*
Y-15027D01*
D02*
G37*
G36*
X51948Y-16043D02*
X51758D01*
X51583Y-16115D01*
X51448Y-16250D01*
X51376Y-16425D01*
Y-16615D01*
X51448Y-16790D01*
X51583Y-16924D01*
X51758Y-16997D01*
X51948D01*
X52123Y-16924D01*
X52257Y-16790D01*
X52330Y-16615D01*
Y-16425D01*
X52257Y-16250D01*
X52123Y-16115D01*
X51948Y-16043D01*
D02*
G37*
G36*
X-24442Y-15780D02*
Y-17297D01*
X-22926D01*
X-22960Y-17126D01*
X-23107Y-16769D01*
X-23321Y-16449D01*
X-23594Y-16176D01*
X-23915Y-15962D01*
X-24271Y-15814D01*
X-24442Y-15780D01*
D02*
G37*
G36*
X-25242Y-15780D02*
X-25413Y-15814D01*
X-25770Y-15962D01*
X-26090Y-16176D01*
X-26363Y-16449D01*
X-26577Y-16769D01*
X-26725Y-17126D01*
X-26759Y-17297D01*
X-25242D01*
Y-15780D01*
D02*
G37*
G36*
X40359Y-17558D02*
X40169D01*
X39994Y-17631D01*
X39859Y-17765D01*
X39787Y-17940D01*
Y-18130D01*
X39859Y-18305D01*
X39994Y-18439D01*
X40169Y-18512D01*
X40359D01*
X40534Y-18439D01*
X40668Y-18305D01*
X40741Y-18130D01*
Y-17940D01*
X40668Y-17765D01*
X40534Y-17631D01*
X40359Y-17558D01*
D02*
G37*
G36*
X12795Y-17723D02*
X12605D01*
X12430Y-17796D01*
X12296Y-17930D01*
X12223Y-18105D01*
Y-18295D01*
X12296Y-18470D01*
X12430Y-18604D01*
X12605Y-18677D01*
X12795D01*
X12970Y-18604D01*
X13104Y-18470D01*
X13177Y-18295D01*
Y-18105D01*
X13104Y-17930D01*
X12970Y-17796D01*
X12795Y-17723D01*
D02*
G37*
G36*
X-7005Y-18923D02*
X-7195D01*
X-7370Y-18996D01*
X-7472Y-19097D01*
X-7550Y-19118D01*
X-7628Y-19097D01*
X-7730Y-18996D01*
X-7905Y-18923D01*
X-8095D01*
X-8270Y-18996D01*
X-8404Y-19130D01*
X-8477Y-19305D01*
Y-19495D01*
X-8404Y-19670D01*
X-8270Y-19804D01*
X-8253Y-19811D01*
Y-19938D01*
X-8270Y-19945D01*
X-8404Y-20080D01*
X-8477Y-20255D01*
Y-20445D01*
X-8404Y-20620D01*
X-8270Y-20754D01*
X-8095Y-20827D01*
X-7905D01*
X-7730Y-20754D01*
X-7628Y-20653D01*
X-7550Y-20632D01*
X-7472Y-20653D01*
X-7370Y-20754D01*
X-7195Y-20827D01*
X-7005D01*
X-6830Y-20754D01*
X-6696Y-20620D01*
X-6623Y-20445D01*
Y-20255D01*
X-6696Y-20080D01*
X-6830Y-19945D01*
X-6847Y-19938D01*
Y-19811D01*
X-6830Y-19804D01*
X-6696Y-19670D01*
X-6623Y-19495D01*
Y-19305D01*
X-6696Y-19130D01*
X-6830Y-18996D01*
X-7005Y-18923D01*
D02*
G37*
G36*
X529Y-18222D02*
X339D01*
X164Y-18294D01*
X30Y-18428D01*
X-43Y-18604D01*
Y-18794D01*
X30Y-18969D01*
X164Y-19103D01*
X339Y-19176D01*
X529D01*
X704Y-19103D01*
X839Y-18969D01*
X911Y-18794D01*
Y-18604D01*
X839Y-18428D01*
X704Y-18294D01*
X529Y-18222D01*
D02*
G37*
G36*
X-25242Y-18097D02*
X-26759D01*
X-26725Y-18268D01*
X-26577Y-18624D01*
X-26363Y-18945D01*
X-26090Y-19218D01*
X-25770Y-19432D01*
X-25413Y-19580D01*
X-25242Y-19614D01*
Y-18097D01*
D02*
G37*
G36*
X-22926D02*
X-24442D01*
Y-19614D01*
X-24271Y-19580D01*
X-23915Y-19432D01*
X-23594Y-19218D01*
X-23321Y-18945D01*
X-23107Y-18624D01*
X-22960Y-18268D01*
X-22926Y-18097D01*
D02*
G37*
G36*
X-10589Y-18438D02*
Y-19955D01*
X-9072D01*
X-9106Y-19784D01*
X-9254Y-19427D01*
X-9468Y-19107D01*
X-9741Y-18834D01*
X-10062Y-18620D01*
X-10418Y-18472D01*
X-10589Y-18438D01*
D02*
G37*
G36*
X-11389Y-18438D02*
X-11560Y-18472D01*
X-11917Y-18620D01*
X-12237Y-18834D01*
X-12510Y-19107D01*
X-12724Y-19427D01*
X-12872Y-19784D01*
X-12906Y-19955D01*
X-11389D01*
Y-18438D01*
D02*
G37*
G36*
X-9072Y-20755D02*
X-10589D01*
Y-22272D01*
X-10418Y-22238D01*
X-10062Y-22090D01*
X-9741Y-21876D01*
X-9468Y-21603D01*
X-9254Y-21282D01*
X-9106Y-20926D01*
X-9072Y-20755D01*
D02*
G37*
G36*
X-11389D02*
X-12906D01*
X-12872Y-20926D01*
X-12724Y-21282D01*
X-12510Y-21603D01*
X-12237Y-21876D01*
X-11917Y-22090D01*
X-11560Y-22238D01*
X-11389Y-22272D01*
Y-20755D01*
D02*
G37*
G36*
X32188Y-22718D02*
X31998D01*
X31822Y-22790D01*
X31688Y-22924D01*
X31616Y-23100D01*
Y-23290D01*
X31688Y-23465D01*
X31822Y-23599D01*
X31998Y-23672D01*
X32188D01*
X32363Y-23599D01*
X32497Y-23465D01*
X32570Y-23290D01*
Y-23100D01*
X32497Y-22924D01*
X32363Y-22790D01*
X32188Y-22718D01*
D02*
G37*
G36*
X51957Y-22826D02*
X51768D01*
X51592Y-22898D01*
X51458Y-23032D01*
X51385Y-23208D01*
Y-23397D01*
X51458Y-23573D01*
X51592Y-23707D01*
X51768Y-23780D01*
X51957D01*
X52133Y-23707D01*
X52267Y-23573D01*
X52339Y-23397D01*
Y-23208D01*
X52267Y-23032D01*
X52133Y-22898D01*
X51957Y-22826D01*
D02*
G37*
G36*
X-6169Y-24284D02*
X-6390D01*
X-6604Y-24341D01*
X-6796Y-24452D01*
X-6952Y-24608D01*
X-7063Y-24800D01*
X-7120Y-25014D01*
Y-25235D01*
X-7063Y-25449D01*
X-6952Y-25641D01*
X-6796Y-25798D01*
X-6604Y-25908D01*
X-6390Y-25966D01*
X-6169D01*
X-5955Y-25908D01*
X-5763Y-25798D01*
X-5606Y-25641D01*
X-5496Y-25449D01*
X-5438Y-25235D01*
Y-25014D01*
X-5496Y-24800D01*
X-5606Y-24608D01*
X-5763Y-24452D01*
X-5955Y-24341D01*
X-6169Y-24284D01*
D02*
G37*
G36*
X-8169D02*
X-8390D01*
X-8604Y-24341D01*
X-8796Y-24452D01*
X-8952Y-24608D01*
X-9063Y-24800D01*
X-9120Y-25014D01*
Y-25235D01*
X-9063Y-25449D01*
X-8952Y-25641D01*
X-8796Y-25798D01*
X-8604Y-25908D01*
X-8390Y-25966D01*
X-8169D01*
X-7955Y-25908D01*
X-7763Y-25798D01*
X-7606Y-25641D01*
X-7496Y-25449D01*
X-7438Y-25235D01*
Y-25014D01*
X-7496Y-24800D01*
X-7606Y-24608D01*
X-7763Y-24452D01*
X-7955Y-24341D01*
X-8169Y-24284D01*
D02*
G37*
G36*
X51948Y-25596D02*
X51758D01*
X51583Y-25669D01*
X51448Y-25803D01*
X51376Y-25979D01*
Y-26168D01*
X51448Y-26344D01*
X51583Y-26478D01*
X51758Y-26550D01*
X51948D01*
X52123Y-26478D01*
X52257Y-26344D01*
X52330Y-26168D01*
Y-25979D01*
X52257Y-25803D01*
X52123Y-25669D01*
X51948Y-25596D01*
D02*
G37*
G36*
X-7879Y-26685D02*
Y-27225D01*
X-7339D01*
X-7468Y-27002D01*
X-7657Y-26813D01*
X-7879Y-26685D01*
D02*
G37*
G36*
X-8679Y-26685D02*
X-8902Y-26813D01*
X-9091Y-27002D01*
X-9219Y-27225D01*
X-8679D01*
Y-26685D01*
D02*
G37*
G36*
X1970Y-27049D02*
X1780D01*
X1605Y-27121D01*
X1503Y-27223D01*
X1425Y-27243D01*
X1347Y-27223D01*
X1245Y-27121D01*
X1070Y-27049D01*
X880D01*
X705Y-27121D01*
X603Y-27223D01*
X525Y-27243D01*
X447Y-27223D01*
X345Y-27121D01*
X170Y-27049D01*
X-20D01*
X-195Y-27121D01*
X-329Y-27255D01*
X-402Y-27431D01*
Y-27621D01*
X-329Y-27796D01*
X-195Y-27930D01*
X-112Y-27964D01*
Y-28102D01*
X-195Y-28136D01*
X-329Y-28271D01*
X-402Y-28446D01*
Y-28636D01*
X-329Y-28811D01*
X-195Y-28945D01*
X-20Y-29018D01*
X170D01*
X345Y-28945D01*
X447Y-28844D01*
X525Y-28823D01*
X603Y-28844D01*
X705Y-28945D01*
X880Y-29018D01*
X1070D01*
X1245Y-28945D01*
X1347Y-28844D01*
X1425Y-28823D01*
X1503Y-28844D01*
X1605Y-28945D01*
X1780Y-29018D01*
X1970D01*
X2145Y-28945D01*
X2279Y-28811D01*
X2352Y-28636D01*
Y-28446D01*
X2279Y-28271D01*
X2145Y-28136D01*
X2062Y-28102D01*
Y-27964D01*
X2145Y-27930D01*
X2279Y-27796D01*
X2352Y-27621D01*
Y-27431D01*
X2279Y-27255D01*
X2145Y-27121D01*
X1970Y-27049D01*
D02*
G37*
G36*
X40359Y-27111D02*
X40169D01*
X39994Y-27184D01*
X39859Y-27318D01*
X39787Y-27494D01*
Y-27683D01*
X39859Y-27859D01*
X39994Y-27993D01*
X40169Y-28065D01*
X40359D01*
X40534Y-27993D01*
X40668Y-27859D01*
X40741Y-27683D01*
Y-27494D01*
X40668Y-27318D01*
X40534Y-27184D01*
X40359Y-27111D01*
D02*
G37*
G36*
X-5438Y-26784D02*
X-7120D01*
Y-28466D01*
X-5438D01*
Y-26784D01*
D02*
G37*
G36*
X-8679Y-28025D02*
X-9219D01*
X-9091Y-28247D01*
X-8902Y-28436D01*
X-8679Y-28565D01*
Y-28025D01*
D02*
G37*
G36*
X-7339D02*
X-7879D01*
Y-28565D01*
X-7657Y-28436D01*
X-7468Y-28247D01*
X-7339Y-28025D01*
D02*
G37*
G36*
X4800Y-29076D02*
Y-29600D01*
X5324D01*
X5200Y-29386D01*
X5014Y-29200D01*
X4800Y-29076D01*
D02*
G37*
G36*
X19800Y-29076D02*
Y-29600D01*
X20324D01*
X20200Y-29386D01*
X20014Y-29200D01*
X19800Y-29076D01*
D02*
G37*
G36*
X19000D02*
X18786Y-29200D01*
X18600Y-29386D01*
X18476Y-29600D01*
X19000D01*
Y-29076D01*
D02*
G37*
G36*
X4000Y-29076D02*
X3786Y-29200D01*
X3600Y-29386D01*
X3476Y-29600D01*
X4000D01*
Y-29076D01*
D02*
G37*
G36*
X21509Y-29173D02*
X21291D01*
X21081Y-29229D01*
X20892Y-29338D01*
X20738Y-29492D01*
X20629Y-29681D01*
X20573Y-29891D01*
Y-30109D01*
X20629Y-30319D01*
X20738Y-30508D01*
X20892Y-30662D01*
X21081Y-30771D01*
X21291Y-30827D01*
X21509D01*
X21719Y-30771D01*
X21908Y-30662D01*
X22062Y-30508D01*
X22171Y-30319D01*
X22227Y-30109D01*
Y-29891D01*
X22171Y-29681D01*
X22062Y-29492D01*
X21908Y-29338D01*
X21719Y-29229D01*
X21509Y-29173D01*
D02*
G37*
G36*
X6509D02*
X6291D01*
X6081Y-29229D01*
X5892Y-29338D01*
X5738Y-29492D01*
X5629Y-29681D01*
X5573Y-29891D01*
Y-30109D01*
X5629Y-30319D01*
X5738Y-30508D01*
X5892Y-30662D01*
X6081Y-30771D01*
X6291Y-30827D01*
X6509D01*
X6719Y-30771D01*
X6908Y-30662D01*
X7062Y-30508D01*
X7171Y-30319D01*
X7227Y-30109D01*
Y-29891D01*
X7171Y-29681D01*
X7062Y-29492D01*
X6908Y-29338D01*
X6719Y-29229D01*
X6509Y-29173D01*
D02*
G37*
G36*
X30227Y-29173D02*
X28573D01*
Y-30827D01*
X30227D01*
Y-29173D01*
D02*
G37*
G36*
X27509D02*
X27291D01*
X27081Y-29229D01*
X26892Y-29338D01*
X26738Y-29492D01*
X26629Y-29681D01*
X26573Y-29891D01*
Y-30109D01*
X26629Y-30319D01*
X26738Y-30508D01*
X26892Y-30662D01*
X27081Y-30771D01*
X27291Y-30827D01*
X27509D01*
X27719Y-30771D01*
X27908Y-30662D01*
X28062Y-30508D01*
X28171Y-30319D01*
X28227Y-30109D01*
Y-29891D01*
X28171Y-29681D01*
X28062Y-29492D01*
X27908Y-29338D01*
X27719Y-29229D01*
X27509Y-29173D01*
D02*
G37*
G36*
X25509D02*
X25291D01*
X25081Y-29229D01*
X24892Y-29338D01*
X24738Y-29492D01*
X24629Y-29681D01*
X24573Y-29891D01*
Y-30109D01*
X24629Y-30319D01*
X24738Y-30508D01*
X24892Y-30662D01*
X25081Y-30771D01*
X25291Y-30827D01*
X25509D01*
X25719Y-30771D01*
X25908Y-30662D01*
X26062Y-30508D01*
X26171Y-30319D01*
X26227Y-30109D01*
Y-29891D01*
X26171Y-29681D01*
X26062Y-29492D01*
X25908Y-29338D01*
X25719Y-29229D01*
X25509Y-29173D01*
D02*
G37*
G36*
X23509D02*
X23291D01*
X23081Y-29229D01*
X22892Y-29338D01*
X22738Y-29492D01*
X22629Y-29681D01*
X22573Y-29891D01*
Y-30109D01*
X22629Y-30319D01*
X22738Y-30508D01*
X22892Y-30662D01*
X23081Y-30771D01*
X23291Y-30827D01*
X23509D01*
X23719Y-30771D01*
X23908Y-30662D01*
X24062Y-30508D01*
X24171Y-30319D01*
X24227Y-30109D01*
Y-29891D01*
X24171Y-29681D01*
X24062Y-29492D01*
X23908Y-29338D01*
X23719Y-29229D01*
X23509Y-29173D01*
D02*
G37*
G36*
X15227D02*
X13573D01*
Y-30827D01*
X15227D01*
Y-29173D01*
D02*
G37*
G36*
X12509D02*
X12291D01*
X12081Y-29229D01*
X11892Y-29338D01*
X11738Y-29492D01*
X11629Y-29681D01*
X11573Y-29891D01*
Y-30109D01*
X11629Y-30319D01*
X11738Y-30508D01*
X11892Y-30662D01*
X12081Y-30771D01*
X12291Y-30827D01*
X12509D01*
X12719Y-30771D01*
X12908Y-30662D01*
X13062Y-30508D01*
X13171Y-30319D01*
X13227Y-30109D01*
Y-29891D01*
X13171Y-29681D01*
X13062Y-29492D01*
X12908Y-29338D01*
X12719Y-29229D01*
X12509Y-29173D01*
D02*
G37*
G36*
X10509D02*
X10291D01*
X10081Y-29229D01*
X9892Y-29338D01*
X9738Y-29492D01*
X9629Y-29681D01*
X9573Y-29891D01*
Y-30109D01*
X9629Y-30319D01*
X9738Y-30508D01*
X9892Y-30662D01*
X10081Y-30771D01*
X10291Y-30827D01*
X10509D01*
X10719Y-30771D01*
X10908Y-30662D01*
X11062Y-30508D01*
X11171Y-30319D01*
X11227Y-30109D01*
Y-29891D01*
X11171Y-29681D01*
X11062Y-29492D01*
X10908Y-29338D01*
X10719Y-29229D01*
X10509Y-29173D01*
D02*
G37*
G36*
X8509D02*
X8291D01*
X8081Y-29229D01*
X7892Y-29338D01*
X7738Y-29492D01*
X7629Y-29681D01*
X7573Y-29891D01*
Y-30109D01*
X7629Y-30319D01*
X7738Y-30508D01*
X7892Y-30662D01*
X8081Y-30771D01*
X8291Y-30827D01*
X8509D01*
X8719Y-30771D01*
X8908Y-30662D01*
X9062Y-30508D01*
X9171Y-30319D01*
X9227Y-30109D01*
Y-29891D01*
X9171Y-29681D01*
X9062Y-29492D01*
X8908Y-29338D01*
X8719Y-29229D01*
X8509Y-29173D01*
D02*
G37*
G36*
X5324Y-30400D02*
X4800D01*
Y-30924D01*
X5014Y-30800D01*
X5200Y-30614D01*
X5324Y-30400D01*
D02*
G37*
G36*
X20324D02*
X19800D01*
Y-30924D01*
X20014Y-30800D01*
X20200Y-30614D01*
X20324Y-30400D01*
D02*
G37*
G36*
X19000D02*
X18476D01*
X18600Y-30614D01*
X18786Y-30800D01*
X19000Y-30924D01*
Y-30400D01*
D02*
G37*
G36*
X4000D02*
X3476D01*
X3600Y-30614D01*
X3786Y-30800D01*
X4000Y-30924D01*
Y-30400D01*
D02*
G37*
G36*
X-10589Y-30478D02*
Y-31995D01*
X-9072D01*
X-9106Y-31824D01*
X-9254Y-31467D01*
X-9468Y-31147D01*
X-9741Y-30874D01*
X-10062Y-30660D01*
X-10418Y-30512D01*
X-10589Y-30478D01*
D02*
G37*
G36*
X-11389Y-30478D02*
X-11560Y-30512D01*
X-11917Y-30660D01*
X-12237Y-30874D01*
X-12510Y-31147D01*
X-12724Y-31467D01*
X-12872Y-31824D01*
X-12906Y-31995D01*
X-11389D01*
Y-30478D01*
D02*
G37*
%LPD*%
D78*
X-10989Y-32395D02*
D03*
Y-20355D02*
D03*
X-24842Y-17697D02*
D03*
Y-4557D02*
D03*
D79*
X-8279Y-27625D02*
D03*
X-22132Y-14627D02*
D03*
D81*
X6986Y21300D02*
D03*
X14610Y25390D02*
D03*
D88*
X4400Y-30000D02*
D03*
X19400D02*
D03*
D91*
X19626Y18826D02*
D03*
X8409Y15044D02*
D03*
X15644Y2847D02*
D03*
X19726Y1724D02*
D03*
X6363Y15071D02*
D03*
X12226Y23250D02*
D03*
X26102Y2950D02*
D03*
X-4627Y-13074D02*
D03*
X-5638D02*
D03*
X-4614Y-14087D02*
D03*
X-4600Y-15100D02*
D03*
X-4186Y-18013D02*
D03*
X-5800Y-7000D02*
D03*
X-7584Y-6650D02*
D03*
X-6649Y-13074D02*
D03*
X-4586Y-16113D02*
D03*
X7780Y-20701D02*
D03*
X12226Y-22538D02*
D03*
X4589Y-22537D02*
D03*
X17450Y-18550D02*
D03*
X18869Y-9400D02*
D03*
X10803Y-21207D02*
D03*
X10932Y-16717D02*
D03*
X9200Y-16700D02*
D03*
X6050Y-21175D02*
D03*
X9322Y-21207D02*
D03*
X18814Y-5868D02*
D03*
X21844Y-7608D02*
D03*
X26090Y959D02*
D03*
X9316Y3732D02*
D03*
X14145Y-2244D02*
D03*
Y-744D02*
D03*
X-3655Y-23236D02*
D03*
X-8179Y-28840D02*
D03*
X-8179Y-30030D02*
D03*
X-13600Y-33600D02*
D03*
Y-31220D02*
D03*
Y-32410D02*
D03*
X-1879Y-33565D02*
D03*
X-3229D02*
D03*
X-8179Y-31226D02*
D03*
X-4579D02*
D03*
X-5779D02*
D03*
X-6979D02*
D03*
Y-32422D02*
D03*
X-5779D02*
D03*
Y-33565D02*
D03*
X-6979D02*
D03*
X-4579Y-32422D02*
D03*
Y-33565D02*
D03*
X-8179D02*
D03*
Y-32422D02*
D03*
X-10889Y-30030D02*
D03*
X-9534D02*
D03*
X-12245D02*
D03*
X-13600D02*
D03*
X-10889Y-28840D02*
D03*
X-9534D02*
D03*
X-12245D02*
D03*
X-13600D02*
D03*
Y-27650D02*
D03*
X-12245Y-27650D02*
D03*
X-9534D02*
D03*
X-10889D02*
D03*
X-19228Y-14665D02*
D03*
X-18328D02*
D03*
Y-15615D02*
D03*
X-19228D02*
D03*
X-17428Y-14665D02*
D03*
Y-15615D02*
D03*
X879Y2512D02*
D03*
X-996Y2407D02*
D03*
X2223Y-1230D02*
D03*
X2063Y-3327D02*
D03*
X-3327Y-2051D02*
D03*
X9308Y-4328D02*
D03*
X-16200Y-300D02*
D03*
X-20500D02*
D03*
X-17045Y9094D02*
D03*
X-13370Y4903D02*
D03*
X-13370Y19903D02*
D03*
X-16200Y14700D02*
D03*
X-17045Y24094D02*
D03*
X-20500Y14700D02*
D03*
X55853Y-28353D02*
D03*
Y-27403D02*
D03*
X54053Y-28353D02*
D03*
X54953D02*
D03*
Y-27403D02*
D03*
X54053D02*
D03*
X54953Y19419D02*
D03*
Y10821D02*
D03*
X55853D02*
D03*
Y19419D02*
D03*
X54953Y20369D02*
D03*
X55853Y9871D02*
D03*
Y20369D02*
D03*
X54953Y9871D02*
D03*
X54053D02*
D03*
Y10821D02*
D03*
Y20369D02*
D03*
Y19419D02*
D03*
X37434Y26591D02*
D03*
X39085D02*
D03*
X33443Y21601D02*
D03*
Y12048D02*
D03*
X39085Y17037D02*
D03*
X37434D02*
D03*
X39085Y-2070D02*
D03*
X37434D02*
D03*
X55853Y1262D02*
D03*
X54953Y312D02*
D03*
X55853D02*
D03*
X54953Y1262D02*
D03*
X54053Y312D02*
D03*
Y1262D02*
D03*
X55853Y-18800D02*
D03*
Y-9241D02*
D03*
Y-8291D02*
D03*
Y-17850D02*
D03*
X54953Y-8291D02*
D03*
X54053D02*
D03*
Y-18800D02*
D03*
X54953Y-17850D02*
D03*
X54053D02*
D03*
X54953Y-18800D02*
D03*
Y-9241D02*
D03*
X54053D02*
D03*
X33443Y-26167D02*
D03*
Y-7060D02*
D03*
Y-16613D02*
D03*
X37434Y-21177D02*
D03*
Y-11624D02*
D03*
X39085Y-21177D02*
D03*
Y-11624D02*
D03*
Y7484D02*
D03*
X37434D02*
D03*
X33443Y2494D02*
D03*
X12842Y8299D02*
D03*
X12757Y6247D02*
D03*
X25390Y6300D02*
D03*
X21122Y7287D02*
D03*
X21384Y8301D02*
D03*
M02*
