M48
;Layer_Color=9474304
;FILE_FORMAT=4:3
METRIC,LZ
;TYPE=PLATED
T1F00S00C0.300
T2F00S00C0.700
T3F00S00C0.800
T4F00S00C0.920
T5F00S00C1.000
T6F00S00C1.320
T7F00S00C1.400
T8F00S00C2.300
;TYPE=NON_PLATED
T9F00S00C3.500
%
T01
X0033443Y-0026167
X0032093Y-0023195
X0037434Y-0021177
X0039085
X0040264Y-0018035
X0033443Y-0016613
X0040264Y-0027588
X0051853Y-0026073
X0051862Y-0023303
X0054053Y-0027403
X0054953
X0055853
Y-0028353
X0054953
X0054053
Y-00188
X0054953
X0055853
Y-001785
X0054953
X0054053
X001745Y-001855
X00127Y-00182
X0010932Y-0016717
X00092Y-00167
X0009322Y-0021207
X0010803
X0012226Y-0022538
X000778Y-0020701
X000605Y-0021175
X0004589Y-0022537
X0001875Y-0027526
X0000975
X0000075
Y-0028541
X0000975
X0001875
X-0001879Y-0033565
X-0003229
X-0004579
Y-0032422
X-0004579Y-0031226
X-0005779
Y-0032422
Y-0033565
X-0006979
Y-0032422
Y-0031226
X-0008179
Y-003003
X-0008179Y-002884
X-0009534
Y-003003
X-0010889
Y-002884
Y-002765
X-0012245
Y-002884
Y-003003
X-0009534Y-002765
X-0008179Y-0032422
Y-0033565
X-0008Y-002035
X-00071
Y-00194
X-0008
X-0004186Y-0018013
X0000434Y-0018699
X-0003655Y-0023236
X-00136Y-002765
Y-002884
Y-003003
Y-003122
Y-003241
Y-00336
X-0017428Y-0015615
X-0018328
X-0019228
Y-0014665
X-0018328
X-0017428
X-0017472Y-0007539
X-0018372
X-0019272
Y-0006589
X-0018372
X-0017472
X-00162Y-00003
X-00205
X-0019154Y0010108
X-0017045Y0009094
X-00162Y00147
X-00205
X-001337Y0019903
X-001337Y0004903
X-0004576Y0000802
X-0003327Y-0002051
X-000079Y-0004576
X0002063Y-0003327
X0002223Y-000123
X0000879Y0002512
X-0000996Y0002407
X0009316Y0003732
X0008391Y0006098
X0011426Y0006629
X0012757Y0006247
X001275Y00042
X0014663Y0002847
X0015644
X00163Y-0000185
X0016295Y-0001148
X0017295Y-0001105
X00182Y-0001095
X0018181Y-0002809
X0018814Y-0005868
X0020244Y-0007608
X0021844Y-0007608
X0021819Y-001075
X0018869Y-00094
X0019726Y-0000286
Y0000724
Y0001724
X0022349Y0001981
X0023952Y0001944
X002609Y0000959
X0026102Y000295
X002539Y00063
X0023206Y0004997
X002229Y000765
X0021122Y0007287
X0021384Y0008301
X0016507Y0007245
X0012842Y0008299
X0014145Y0000256
Y-0000744
Y-0002244
X0009299Y-0002737
X0009308Y-0004328
X-00058Y-0007
X-0007584Y-000665
X-00044Y-0009601
Y-0010501
X-000345
Y-0009601
X-0004627Y-0013074
X-0005638
X-0006649
X-0004614Y-0014087
X-00046Y-00151
X-0004586Y-0016113
X0006363Y0015071
X0008409Y0015044
X0016341Y0021184
X0017547Y0022347
X0021494Y0021206
X0021705Y0020047
X0021709Y0017367
X0019626Y0018826
X0032093Y001502
X0033443Y0012048
X0032093Y0005466
X0033443Y0002494
X0032093Y-0004088
X0033443Y-000706
X0032093Y-0013641
X0037434Y-0011624
X0039085
X0040264Y-0008481
X0039085Y-000207
X0037434
X0040264Y0001072
X0039085Y0007484
X0037434
X0040264Y0010626
X0039085Y0017037
X0037434
X0040264Y0020179
X0033443Y0021601
X0051853Y0021694
X0054053Y0020369
X0054953
X0055853
Y0019419
X0054953
X0054053
X0051862Y0014912
X0051853Y0012141
X0054053Y0010821
X0054953
X0055853
Y0009871
X0054953
X0054053
X0051862Y0005358
X0051853Y0002587
X0054053Y0001262
X0054953
X0055853
Y0000312
X0054953
X0054053
X0051862Y-0004195
X0051853Y-0006966
X0054053Y-0008291
X0054953
X0055853
Y-0009241
X0054953
X0054053
X0051862Y-0013749
X0051853Y-001652
X0051862Y0024465
X0039085Y0026591
X0037434
X0032093Y0024573
X0014226Y0023225
X0012226Y002325
X-0017045Y0024094
X-0019154Y0025109
T02
X00601Y-0024868
Y-0022868
X0019347Y0012
X0014467
X00601Y0013346
Y0015346
Y00229
Y0005793
Y0003793
Y-0003761
Y-0005761
Y-0013314
Y-0015314
Y00249
T03
X00274Y-003
X00294
X00254
X00234
X00214Y-003
X00194
X00144Y-003
X00124
X00104
X00084
X00064Y-003
X00044
T04
X-0008279Y-0027625
X-0006279
Y-0025125
X-0008279
X-0022132Y-0014627
Y-0012127
Y-0010127
Y-0007627
T05
X0006986Y00213
X0009526
X000953Y002539
X000699
X001207
X001461
X001715
X001969
T06
X-0044045Y0001394
X-0047545Y0008894
X-0040545
X-0044045Y0016394
X-0023745
X-0023745Y0008894
Y0001394
X-0023745Y0023894
X-0040545
X-0047545
T07
X-0056759Y-0001106
Y0003894
Y0008894
X-0056759Y0013894
Y0018894
Y0023894
T08
X-0010989Y-0032395
Y-0020355
X-0024842Y-0017697
Y-0004557
T09
X0062Y-0032
X-0062
X0062Y0032
X-0062Y0032
M30
